# Blender v2.77 (sub 0) OBJ File: 'lootBox.blend'
# www.blender.org
mtllib lootBoxDoorBottom2.mtl
o Cube.003
v 0.950000 0.730001 -1.900000
v 0.950000 0.730001 1.900000
v 0.900000 0.730001 1.900000
v 0.900000 0.730001 -1.900000
v 0.500000 1.120001 -1.900000
v 0.500000 1.120001 1.900000
v 0.500000 1.070001 -1.900000
v 0.500000 1.070001 1.900000
vn 0.0000 0.0000 1.0000
vn -1.0000 0.0000 0.0000
vn -0.6476 -0.7619 0.0000
vn 0.6549 0.7557 -0.0000
vn 0.0000 0.0000 -1.0000
vn 0.0000 -1.0000 0.0000
usemtl Material.004
s off
f 3//1 2//1 6//1 8//1
f 6//2 5//2 7//2 8//2
f 4//3 3//3 8//3 7//3
f 2//4 1//4 5//4 6//4
f 1//5 4//5 7//5 5//5
f 2//6 3//6 4//6 1//6
