# Blender v2.77 (sub 0) OBJ File: 'lootBox.blend'
# www.blender.org
mtllib lootBoxDoorTop2.mtl
o Cube.004
v 0.000000 1.450000 1.900000
v 0.000000 1.450000 -1.900000
v 0.000000 1.400000 -1.900000
v 0.000000 1.400000 1.900000
v 0.500000 1.120000 1.900000
v 0.500000 1.120000 -1.900000
v 0.450000 1.120000 1.900000
v 0.450000 1.120000 -1.900000
vn 0.0000 0.0000 -1.0000
vn 0.0000 -1.0000 0.0000
vn -0.5283 -0.8491 0.0000
vn 0.5508 0.8346 0.0000
vn 0.0000 0.0000 1.0000
vn -1.0000 -0.0000 0.0000
usemtl Material.003
s off
f 3//1 2//1 6//1 8//1
f 6//2 5//2 7//2 8//2
f 4//3 3//3 8//3 7//3
f 2//4 1//4 5//4 6//4
f 1//5 4//5 7//5 5//5
f 2//6 3//6 4//6 1//6
