# Blender v2.77 (sub 0) OBJ File: 'ar1.blend'
# www.blender.org
mtllib ar1_rarity.mtl
o Cube.002_Cube.005
v -1.121434 0.725617 0.697193
v -0.912163 0.934888 0.697193
v -1.121434 0.725617 0.662446
v -0.912163 0.934888 0.662446
v -0.677131 0.281314 0.697193
v -0.467860 0.490585 0.697193
v -0.677131 0.281314 0.662446
v -0.467860 0.490585 0.662446
v -0.677131 0.281314 0.697193
v -0.467860 0.490585 0.697193
v -0.677131 0.281314 0.662446
v -0.467860 0.490585 0.662446
v -1.121434 0.725617 0.697193
v -0.912163 0.934888 0.697193
v -1.121434 0.725617 0.662446
v -0.912163 0.934888 0.662446
vn -0.7071 0.7071 0.0000
vn 0.0000 0.0000 -1.0000
vn 0.7071 -0.7071 0.0000
vn 0.0000 0.0000 1.0000
vn -0.7071 -0.7071 0.0000
vn 0.7071 0.7071 0.0000
usemtl None
s off
f 2//1 4//1 3//1 1//1
f 4//2 8//2 7//2 3//2
f 8//3 6//3 5//3 7//3
f 6//4 2//4 1//4 5//4
f 1//5 3//5 7//5 5//5
f 6//6 8//6 4//6 2//6
f 10//3 9//3 11//3 12//3
f 12//2 11//2 15//2 16//2
f 16//1 15//1 13//1 14//1
f 14//4 13//4 9//4 10//4
f 9//5 13//5 15//5 11//5
f 14//6 10//6 12//6 16//6
