# Blender v2.77 (sub 0) OBJ File: 'ar1.blend'
# www.blender.org
mtllib ar1_stock.mtl
o Plane.002
v 3.043305 0.085701 0.662655
v 3.055452 0.804685 0.662655
v 3.062469 0.180120 0.662655
v 3.052415 0.696934 0.662655
v 4.093780 -0.326635 0.662655
v 4.021313 -0.091498 0.662655
v 4.501900 0.798140 0.662655
v 4.498981 0.240540 0.662655
v 4.489752 -1.072766 0.662654
v 4.348505 -0.177462 0.662655
v 4.430199 0.710903 0.662655
v 4.847503 0.209452 0.662655
v 4.888998 -1.082584 0.662654
v 4.501900 0.798140 0.662655
v 4.498981 0.240540 0.662655
v 4.907691 0.680330 0.662655
v 4.812788 0.807958 0.662655
v 3.043305 0.085701 0.264515
v 3.055452 0.804685 0.264515
v 3.062469 0.180120 0.264515
v 3.052415 0.696934 0.264515
v 4.093780 -0.326635 0.264515
v 4.021313 -0.091498 0.264515
v 4.501900 0.798140 0.264515
v 4.498981 0.240541 0.264515
v 4.489752 -1.072766 0.264515
v 4.348505 -0.177462 0.264515
v 4.430199 0.710903 0.264515
v 4.847503 0.209452 0.264515
v 4.888998 -1.082584 0.264515
v 4.501900 0.798140 0.264515
v 4.498981 0.240541 0.264515
v 4.907691 0.680330 0.264515
v 4.812788 0.807958 0.264515
vn -0.0000 -0.0000 1.0000
vn -0.0000 -0.0000 -1.0000
vn 0.2726 0.9621 0.0000
vn 0.9919 -0.1268 -0.0000
vn 0.2541 0.9672 0.0000
vn 1.0000 -0.0052 -0.0000
vn -0.0888 -0.9960 -0.0000
vn 0.9995 0.0321 0.0000
vn -0.9895 -0.1447 -0.0000
vn -0.0246 -0.9997 0.0000
vn 0.0045 1.0000 -0.0000
vn -0.9996 0.0282 0.0000
vn 0.0888 0.9960 0.0000
vn 0.0101 -0.9999 -0.0000
vn -0.9800 0.1989 0.0000
vn -1.0000 0.0052 0.0000
vn -0.8833 -0.4688 0.0000
vn 0.8025 0.5967 0.0000
vn -0.9409 0.3387 0.0000
vn -0.3654 -0.9309 -0.0000
vn -0.0316 0.9995 0.0000
usemtl None
s off
f 3//1 1//1 5//1 6//1
f 2//1 4//1 11//1 8//1 7//1
f 6//1 5//1 9//1 8//1 10//1
f 8//1 9//1 13//1 12//1
f 14//1 15//1 12//1 16//1 17//1
f 20//2 23//2 22//2 18//2
f 19//2 24//2 25//2 28//2 21//2
f 23//2 27//2 25//2 26//2 22//2
f 25//2 29//2 30//2 26//2
f 31//2 34//2 33//2 29//2 32//2
f 6//3 23//3 20//3 3//3
f 12//4 29//4 33//4 16//4
f 10//5 27//5 23//5 6//5
f 8//6 25//6 24//6 7//6
f 15//7 32//7 29//7 12//7
f 13//8 30//8 29//8 12//8
f 11//9 28//9 25//9 8//9
f 9//10 26//10 30//10 13//10
f 7//11 24//11 19//11 2//11
f 2//12 19//12 21//12 4//12
f 12//13 29//13 25//13 8//13
f 4//14 21//14 28//14 11//14
f 3//15 20//15 18//15 1//15
f 14//16 31//16 32//16 15//16
f 5//17 22//17 26//17 9//17
f 16//18 33//18 34//18 17//18
f 8//19 25//19 27//19 10//19
f 1//20 18//20 22//20 5//20
f 17//21 34//21 31//21 14//21
