# Blender v2.77 (sub 0) OBJ File: 'ar1.blend'
# www.blender.org
mtllib ar1_barrel.mtl
o Plane.006_Plane.009
v -4.246808 0.440923 0.579877
v -4.247184 0.671799 0.579877
v -5.690735 0.440923 0.579877
v -5.691111 0.671800 0.579877
v -4.247184 0.671799 0.349877
v -4.246808 0.440923 0.349877
v -5.691111 0.671800 0.349877
v -5.690735 0.440923 0.349877
vn 0.0000 -0.0000 1.0000
vn 0.0000 0.0000 -1.0000
vn -1.0000 -0.0016 0.0000
vn 0.0000 1.0000 0.0000
vn 1.0000 0.0016 0.0000
vn -0.0000 -1.0000 0.0000
usemtl None
s off
f 1//1 2//1 4//1 3//1
f 6//2 8//2 7//2 5//2
f 4//3 7//3 8//3 3//3
f 2//4 5//4 7//4 4//4
f 1//5 6//5 5//5 2//5
f 3//6 8//6 6//6 1//6
