# Blender v2.77 (sub 0) OBJ File: 'ar1.blend'
# www.blender.org
mtllib ar1_body.mtl
o Plane
v 1.369765 -1.398896 0.662654
v 1.948010 -1.076549 0.662654
v 0.907256 -0.439514 0.662655
v 1.401998 -0.184506 0.662655
v 0.743634 -0.082891 0.662655
v 1.558897 0.109263 0.662655
v -1.249320 -0.032817 0.662655
v 1.564399 1.052373 0.662655
v 1.561620 0.606764 0.662655
v 0.115123 -0.075419 0.662655
v -1.076263 -0.286633 0.662655
v 0.115123 -0.467681 0.662655
v -1.546977 0.161006 0.662655
v 0.069190 1.052372 0.662655
v -2.368066 0.181364 0.662655
v -2.353363 1.052373 0.662655
v -4.098461 0.167792 0.662655
v -2.712887 1.052373 0.662655
v -4.098461 0.167792 0.662655
v -3.133077 1.052373 0.662655
v -4.161984 0.186453 0.662655
v -4.200060 0.883858 0.662655
v -4.246808 0.440923 0.662655
v -4.247184 0.671799 0.662655
v 3.043305 0.085701 0.662655
v 3.055452 0.804685 0.662655
v 1.701058 1.156046 0.662655
v 2.131821 0.955482 0.662655
v 2.746696 0.828247 0.662655
v -0.030280 1.561313 0.662655
v -0.032598 1.398452 0.662655
v 1.673915 1.461410 0.662655
v 0.904285 1.554558 0.662655
v 1.282785 1.720592 0.662655
v 0.899572 1.724205 0.662655
v 1.183825 1.763004 0.662655
v 0.960834 1.766616 0.662655
v -4.069087 1.050583 0.662655
v -2.170960 1.555030 0.662655
v -2.850333 1.342972 0.662655
v -2.412471 1.555030 0.662655
v -2.685398 1.771015 0.662655
v -2.487084 1.771014 0.662655
v -2.355530 1.405803 0.662655
v -1.065277 1.550317 0.662655
v -1.254932 1.402128 0.662655
v 3.062469 0.180120 0.662655
v 3.052415 0.696934 0.662655
v 0.108481 -0.530965 0.662655
v 0.655087 -0.523313 0.662655
v 0.648444 -0.586597 0.662654
v 0.888177 -0.374211 0.662655
v 0.907256 -0.439514 0.662655
v 1.369765 -1.398896 0.662654
v 1.948010 -1.076549 0.662654
v 1.401998 -0.184506 0.662655
v 1.558897 0.109263 0.662655
v 0.743634 -0.082891 0.662655
v -1.249320 -0.032817 0.662655
v 0.115123 -0.075419 0.662655
v 0.108481 -0.530965 0.662655
v 0.115123 -0.467681 0.662655
v -1.076263 -0.286633 0.662655
v 0.069190 1.052372 0.662655
v -1.546977 0.161006 0.662655
v -2.353363 1.052373 0.662655
v -2.368066 0.181364 0.662655
v -2.712887 1.052373 0.662655
v -4.098461 0.167792 0.662655
v -3.133077 1.052373 0.662655
v -4.098461 0.167792 0.662655
v -4.200060 0.883858 0.662655
v -4.161984 0.186453 0.662655
v -4.069087 1.050583 0.662655
v -4.247184 0.671799 0.662655
v -4.246808 0.440923 0.662655
v 3.052415 0.696934 0.662655
v 3.055452 0.804685 0.662655
v 3.043305 0.085701 0.662655
v 2.131821 0.955482 0.662655
v 1.701058 1.156046 0.662655
v 2.746696 0.828247 0.662655
v -0.030280 1.561313 0.662655
v -0.032598 1.398452 0.662655
v 0.904285 1.554558 0.662655
v 1.673915 1.461410 0.662655
v 1.282785 1.720592 0.662655
v 0.899572 1.724205 0.662655
v 1.183825 1.763004 0.662655
v 0.960834 1.766616 0.662655
v -2.412471 1.555030 0.662655
v -2.850333 1.342972 0.662655
v -2.355530 1.405803 0.662655
v -2.170960 1.555030 0.662655
v -2.487084 1.771014 0.662655
v -2.685398 1.771015 0.662655
v -1.254932 1.402128 0.662655
v -1.065277 1.550317 0.662655
v 3.062469 0.180120 0.662655
v 0.648444 -0.586597 0.662654
v 0.655087 -0.523313 0.662655
v 0.888177 -0.374211 0.662655
v 0.907256 -0.439514 0.264608
v 1.369765 -1.398896 0.264608
v 1.948010 -1.076549 0.264608
v 1.401998 -0.184506 0.264608
v 1.558897 0.109263 0.264608
v 0.743634 -0.082891 0.264608
v 1.564399 1.052373 0.264608
v -1.249320 -0.032817 0.264608
v 1.561620 0.606764 0.264608
v 0.115123 -0.075419 0.264608
v 0.108481 -0.530965 0.264608
v 0.115123 -0.467681 0.264608
v -1.076263 -0.286633 0.264608
v 0.069190 1.052372 0.264608
v -1.546977 0.161006 0.264608
v -2.353363 1.052373 0.264608
v -2.368066 0.181364 0.264608
v -2.712887 1.052373 0.264608
v -4.098461 0.167792 0.264608
v -3.133077 1.052373 0.264608
v -4.098461 0.167792 0.264608
v -4.200060 0.883858 0.264608
v -4.161984 0.186453 0.264608
v -4.069087 1.050583 0.264608
v -4.247184 0.671799 0.264608
v -4.246808 0.440923 0.264608
v 3.052415 0.696934 0.264608
v 3.055452 0.804685 0.264608
v 3.043305 0.085701 0.264608
v 2.131821 0.955482 0.264608
v 1.701058 1.156046 0.264608
v 2.746696 0.828247 0.264608
v -0.030280 1.561313 0.264608
v -0.032598 1.398452 0.264608
v 0.904285 1.554558 0.264608
v 1.673915 1.461410 0.264608
v 1.282785 1.720592 0.264608
v 0.899572 1.724205 0.264608
v 1.183825 1.763004 0.264608
v 0.960834 1.766616 0.264608
v -2.412471 1.555030 0.264608
v -2.850333 1.342972 0.264608
v -2.355530 1.405803 0.264608
v -2.170960 1.555030 0.264608
v -2.487084 1.771014 0.264608
v -2.685398 1.771015 0.264608
v -1.254932 1.402128 0.264608
v -1.065277 1.550317 0.264608
v 3.062469 0.180120 0.264608
v 0.648444 -0.586597 0.264608
v 0.655086 -0.523313 0.264608
v 0.888177 -0.374211 0.264608
vn 0.0000 -0.0000 1.0000
vn 0.1025 0.9947 0.0000
vn -0.9594 -0.2822 0.0000
vn 0.0000 1.0000 0.0000
vn -0.9762 0.2169 0.0000
vn -0.1025 -0.9947 -0.0000
vn -0.5457 -0.8380 0.0000
vn -1.0000 -0.0016 0.0000
vn 0.9961 0.0885 0.0000
vn -0.7167 0.6974 0.0000
vn -0.2819 -0.9595 0.0000
vn 0.8529 0.5221 0.0000
vn -0.2020 -0.9794 -0.0000
vn 0.0072 1.0000 0.0000
vn -0.7864 0.6177 0.0000
vn 0.4869 -0.8735 -0.0000
vn -0.0030 -1.0000 0.0000
vn 1.0000 0.0000 0.0000
vn -0.9008 -0.4343 -0.0000
vn 0.9998 0.0194 0.0000
vn -0.8262 -0.5633 0.0000
vn -0.0019 1.0000 0.0000
vn 0.9800 -0.1989 0.0000
vn 0.0000 0.0000 -1.0000
vn 0.8821 -0.4711 -0.0000
vn -0.9487 -0.3162 0.0000
vn 0.9452 0.3265 0.0000
vn -0.8958 -0.4445 0.0000
vn 0.9996 -0.0282 -0.0000
vn -0.9331 0.3596 0.0000
vn -0.0248 -0.9997 0.0000
vn -0.5389 0.8424 0.0000
vn -0.0159 -0.9999 0.0000
vn 0.7032 -0.7110 0.0000
vn 0.5524 0.8336 0.0000
vn -0.0119 -0.9999 0.0000
vn -0.9996 -0.0278 0.0000
vn 0.4941 -0.8694 -0.0000
vn 0.4221 0.9066 0.0000
vn -0.0033 -1.0000 0.0000
vn 0.0078 -1.0000 0.0000
vn 0.0162 0.9999 0.0000
vn 0.2026 0.9793 0.0000
vn 0.0043 1.0000 0.0000
vn 0.3939 0.9191 0.0000
vn 0.0761 0.9971 0.0000
vn -0.0106 0.9999 0.0000
vn -0.5692 0.8222 0.0000
usemtl None
s off
f 1//1 2//1 4//1 3//1
f 3//1 4//1 6//1 5//1 52//1
f 10//1 9//1 8//1 7//1
f 5//1 6//1 9//1 10//1
f 10//1 7//1 11//1 49//1 12//1
f 7//1 8//1 14//1 13//1
f 13//1 14//1 16//1 15//1
f 15//1 16//1 18//1 17//1
f 17//1 18//1 20//1 19//1
f 19//1 20//1 38//1 22//1 21//1
f 21//1 22//1 24//1 23//1
f 9//1 6//1 25//1 47//1 48//1 26//1
f 9//1 26//1 29//1 28//1
f 8//1 9//1 28//1 27//1
f 8//1 27//1 32//1 33//1 30//1
f 14//1 8//1 30//1 31//1
f 33//1 32//1 34//1 35//1
f 35//1 34//1 36//1 37//1
f 20//1 18//1 44//1 39//1 41//1 40//1
f 40//1 41//1 43//1 42//1
f 39//1 44//1 46//1 45//1
f 31//1 30//1 45//1 46//1
f 12//1 49//1 51//1 50//1
f 50//1 51//1 3//1 52//1
f 101//2 153//2 114//2 62//2
f 84//3 136//3 116//3 64//3
f 95//4 147//4 148//4 96//4
f 72//5 124//5 127//5 75//5
f 61//6 113//6 152//6 100//6
f 65//7 117//7 110//7 59//7
f 94//4 146//4 143//4 91//4
f 75//8 127//8 128//8 76//8
f 81//9 133//9 138//9 86//9
f 92//10 144//10 122//10 70//10
f 73//11 125//11 123//11 71//11
f 55//12 105//12 106//12 56//12
f 63//13 115//13 113//13 61//13
f 85//14 137//14 135//14 83//14
f 74//15 126//15 124//15 72//15
f 54//16 104//16 105//16 55//16
f 97//17 149//17 136//17 84//17
f 62//18 114//18 112//18 60//18
f 53//19 103//19 104//19 54//19
f 99//20 151//20 129//20 77//20
f 59//21 110//21 115//21 63//21
f 70//22 122//22 126//22 74//22
f 71//1 123//1 121//1 69//1
f 79//23 131//23 151//23 99//23
f 51//1 100//1 53//1 3//1
f 28//1 80//1 81//1 27//1
f 44//1 93//1 97//1 46//1
f 17//1 69//1 67//1 15//1
f 36//1 89//1 90//1 37//1
f 29//1 82//1 80//1 28//1
f 45//1 98//1 94//1 39//1
f 34//1 87//1 89//1 36//1
f 26//1 78//1 82//1 29//1
f 30//1 83//1 98//1 45//1
f 37//1 90//1 88//1 35//1
f 25//1 79//1 99//1 47//1
f 19//1 71//1 69//1 17//1
f 20//1 70//1 74//1 38//1
f 7//1 59//1 63//1 11//1
f 47//1 99//1 77//1 48//1
f 3//1 53//1 54//1 1//1
f 12//1 62//1 60//1 10//1
f 46//1 97//1 84//1 31//1
f 1//1 54//1 55//1 2//1
f 38//1 74//1 72//1 22//1
f 33//1 85//1 83//1 30//1
f 11//1 63//1 61//1 49//1
f 2//1 55//1 56//1 4//1
f 21//1 73//1 71//1 19//1
f 40//1 92//1 70//1 20//1
f 27//1 81//1 86//1 32//1
f 24//1 75//1 76//1 23//1
f 39//1 94//1 91//1 41//1
f 13//1 65//1 59//1 7//1
f 49//1 61//1 100//1 51//1
f 22//1 72//1 75//1 24//1
f 43//1 95//1 96//1 42//1
f 31//1 84//1 64//1 14//1
f 50//1 101//1 62//1 12//1
f 4//1 56//1 57//1 6//1
f 23//1 76//1 73//1 21//1
f 41//1 91//1 95//1 43//1
f 14//1 64//1 66//1 16//1
f 5//1 58//1 102//1 52//1
f 48//1 77//1 78//1 26//1
f 42//1 96//1 92//1 40//1
f 15//1 67//1 65//1 13//1
f 52//1 102//1 101//1 50//1
f 6//1 57//1 79//1 25//1
f 18//1 68//1 93//1 44//1
f 32//1 86//1 87//1 34//1
f 10//1 60//1 58//1 5//1
f 16//1 66//1 68//1 18//1
f 35//1 88//1 85//1 33//1
f 104//24 103//24 106//24 105//24
f 103//24 154//24 108//24 107//24 106//24
f 112//24 110//24 109//24 111//24
f 108//24 112//24 111//24 107//24
f 112//24 114//24 113//24 115//24 110//24
f 110//24 117//24 116//24 109//24
f 117//24 119//24 118//24 116//24
f 119//24 121//24 120//24 118//24
f 121//24 123//24 122//24 120//24
f 123//24 125//24 124//24 126//24 122//24
f 125//24 128//24 127//24 124//24
f 111//24 130//24 129//24 151//24 131//24 107//24
f 111//24 132//24 134//24 130//24
f 109//24 133//24 132//24 111//24
f 109//24 135//24 137//24 138//24 133//24
f 116//24 136//24 135//24 109//24
f 137//24 140//24 139//24 138//24
f 140//24 142//24 141//24 139//24
f 122//24 144//24 143//24 146//24 145//24 120//24
f 144//24 148//24 147//24 143//24
f 146//24 150//24 149//24 145//24
f 136//24 149//24 150//24 135//24
f 114//24 153//24 152//24 113//24
f 153//24 154//24 103//24 152//24
f 56//25 106//25 107//25 57//25
f 76//26 128//26 125//26 73//26
f 91//27 143//27 147//27 95//27
f 64//4 116//4 118//4 66//4
f 58//28 108//28 154//28 102//28
f 77//29 129//29 130//29 78//29
f 96//30 148//30 144//30 92//30
f 67//31 119//31 117//31 65//31
f 102//32 154//32 153//32 101//32
f 57//33 107//33 131//33 79//33
f 68//34 120//34 145//34 93//34
f 86//35 138//35 139//35 87//35
f 60//36 112//36 108//36 58//36
f 66//4 118//4 120//4 68//4
f 88//37 140//37 137//37 85//37
f 100//38 152//38 103//38 53//38
f 80//39 132//39 133//39 81//39
f 93//40 145//40 149//40 97//40
f 69//41 121//41 119//41 67//41
f 89//42 141//42 142//42 90//42
f 82//43 134//43 132//43 80//43
f 98//44 150//44 146//44 94//44
f 87//45 139//45 141//45 89//45
f 78//46 130//46 134//46 82//46
f 83//47 135//47 150//47 98//47
f 90//48 142//48 140//48 88//48
