# Blender v2.77 (sub 0) OBJ File: 'ar1.blend'
# www.blender.org
mtllib ar1_mag.mtl
o Plane.008_Plane.011
v -1.394489 -1.645782 0.600777
v -0.518303 -1.938081 0.600777
v -1.193821 -0.923404 0.600777
v -0.311090 -1.120800 0.600777
v -1.092373 -0.268903 0.600777
v -0.190007 -0.427028 0.600777
v -1.415942 -1.654055 0.600777
v -0.485578 -1.967533 0.600777
v -1.448667 -1.748957 0.600777
v -0.518303 -2.062436 0.600777
v -1.394489 -1.645782 0.327306
v -0.518303 -1.938081 0.327306
v -1.193821 -0.923404 0.327306
v -0.311090 -1.120800 0.327306
v -1.092373 -0.268903 0.327307
v -0.190007 -0.427028 0.327307
v -1.415942 -1.654055 0.327306
v -0.485578 -1.967533 0.327306
v -1.448667 -1.748957 0.327306
v -0.518303 -2.062436 0.327306
v -1.193821 -0.923404 0.600777
v -1.394489 -1.645782 0.600777
v -0.518303 -1.938081 0.600777
v -0.311090 -1.120800 0.600777
v -0.190007 -0.427028 0.600777
v -1.092373 -0.268903 0.600777
v -1.415942 -1.654055 0.600777
v -0.485578 -1.967533 0.600777
v -1.448667 -1.748957 0.600777
v -0.518303 -2.062436 0.600777
v -1.193821 -0.923404 0.600777
v -1.394489 -1.645782 0.600777
v -0.518303 -1.938081 0.600777
v -0.311090 -1.120800 0.600777
v -0.190007 -0.427028 0.600777
v -1.092373 -0.268903 0.600777
v -1.415942 -1.654055 0.600777
v -0.485578 -1.967533 0.600777
v -1.448667 -1.748957 0.600777
v -0.518303 -2.062436 0.600777
vn 0.0000 0.0000 1.0000
vn 0.0000 0.0000 -1.0000
vn -0.9882 0.1532 0.0000
vn -0.3193 -0.9477 0.0000
vn -0.9635 0.2677 0.0000
vn 0.1726 0.9850 0.0000
vn -0.9454 0.3260 0.0000
vn -0.3598 0.9330 0.0000
vn 0.9851 -0.1719 0.0000
vn 0.9454 -0.3260 0.0000
vn 0.9693 -0.2458 0.0000
vn 0.6690 0.7433 0.0000
usemtl None
s off
f 9//1 29//1 27//1 7//1
f 5//1 26//1 25//1 6//1
f 1//1 22//1 21//1 3//1
f 10//1 30//1 29//1 9//1
f 11//2 13//2 14//2 12//2
f 13//2 15//2 16//2 14//2
f 12//2 18//2 17//2 11//2
f 18//2 20//2 19//2 17//2
f 5//3 15//3 13//3 3//3
f 9//4 19//4 20//4 10//4
f 3//5 13//5 11//5 1//5
f 6//6 16//6 15//6 5//6
f 7//7 17//7 19//7 9//7
f 1//8 11//8 17//8 7//8
f 4//9 14//9 16//9 6//9
f 10//10 20//10 18//10 8//10
f 2//11 12//11 14//11 4//11
f 8//12 18//12 12//12 2//12
f 24//1 34//1 33//1 23//1
f 28//1 38//1 40//1 30//1
f 25//1 35//1 34//1 24//1
f 27//1 37//1 32//1 22//1
f 7//1 27//1 22//1 1//1
f 6//1 25//1 24//1 4//1
f 8//1 28//1 30//1 10//1
f 4//1 24//1 23//1 2//1
f 2//1 23//1 28//1 8//1
f 3//1 21//1 26//1 5//1
f 32//1 33//1 34//1 31//1
f 31//1 34//1 35//1 36//1
f 33//1 32//1 37//1 38//1
f 38//1 37//1 39//1 40//1
f 23//1 33//1 38//1 28//1
f 21//1 31//1 36//1 26//1
f 30//1 40//1 39//1 29//1
f 22//1 32//1 31//1 21//1
f 26//1 36//1 35//1 25//1
f 29//1 39//1 37//1 27//1
