# Blender v2.77 (sub 0) OBJ File: 'lootBox.blend'
# www.blender.org
mtllib lootBoxDoorBottom1.mtl
o Cube.002
v 0.950000 0.500001 -1.900000
v 0.950000 0.500001 1.900000
v 0.950000 0.730001 -1.900000
v 0.950000 0.730001 1.900000
v 0.900000 0.500001 1.900000
v 0.900000 0.500001 -1.900000
v 0.900000 0.730001 1.900000
v 0.900000 0.730001 -1.900000
vn 0.0000 0.0000 -1.0000
vn 1.0000 0.0000 -0.0000
vn -1.0000 0.0000 0.0000
vn 0.0000 -1.0000 0.0000
vn 0.0000 0.0000 1.0000
vn 0.0000 1.0000 -0.0000
usemtl Material.005
s off
f 3//1 1//1 6//1 8//1
f 2//2 1//2 3//2 4//2
f 6//3 5//3 7//3 8//3
f 1//4 2//4 5//4 6//4
f 2//5 4//5 7//5 5//5
f 4//6 3//6 8//6 7//6
